<?xml version="1.0" standalone="no"?>
<!DOCTYPE svg PUBLIC "-//W3C//DTD SVG 20010904//EN"
 "http://www.w3.org/TR/2001/REC-SVG-20010904/DTD/svg10.dtd">
<svg version="1.0" xmlns="http://www.w3.org/2000/svg"
 width="700.000000pt" height="700.000000pt" viewBox="0 0 700.000000 700.000000"
 preserveAspectRatio="xMidYMid meet">
<metadata>
Created by potrace 1.14, written by Peter Selinger 2001-2017
</metadata>
<g transform="translate(0.000000,700.000000) scale(0.100000,-0.100000)"
fill="#000000" stroke="none">
<path d="M1401 6834 c-12 -15 -21 -32 -21 -38 0 -6 69 -357 154 -779 l153
-768 -26 5 c-99 21 -1359 236 -1382 236 -37 0 -69 -32 -69 -67 0 -21 130 -206
495 -708 272 -374 491 -682 487 -686 -4 -4 -187 -58 -406 -120 -220 -63 -410
-122 -423 -132 -15 -12 -23 -29 -23 -50 0 -28 46 -77 436 -468 l437 -437 -344
-257 c-189 -142 -356 -269 -371 -283 -33 -30 -37 -73 -10 -100 11 -11 174 -63
435 -137 229 -66 417 -123 417 -127 0 -5 -79 -153 -175 -329 -96 -176 -175
-329 -175 -339 0 -10 11 -32 24 -47 l24 -28 471 59 c259 33 473 57 475 55 2
-2 22 -44 45 -93 67 -145 162 -278 285 -401 215 -214 468 -349 780 -417 84
-18 134 -22 296 -23 168 0 209 3 299 23 261 59 453 162 632 341 89 89 171 197
214 281 10 19 19 36 20 38 1 2 108 -24 236 -58 128 -34 244 -60 258 -58 13 2
33 15 43 29 19 25 19 28 -10 227 -16 111 -28 202 -27 202 1 0 177 14 391 30
421 33 435 36 442 92 2 18 -56 144 -178 388 -100 200 -178 366 -173 370 4 5
150 72 323 150 173 79 321 148 329 153 21 18 31 55 21 81 -6 16 -136 112 -389
287 -209 145 -377 266 -373 270 4 4 230 125 502 269 272 143 503 270 513 282
23 27 22 52 -5 82 -16 17 -204 106 -568 267 -300 133 -549 244 -553 248 -4 4
134 334 308 733 214 492 313 732 309 744 -13 34 -37 54 -66 54 -17 0 -390 -83
-831 -185 -440 -102 -801 -184 -802 -182 -1 1 -30 294 -64 652 -57 605 -63
651 -83 672 -13 14 -33 23 -52 23 -27 0 -90 -60 -541 -509 l-510 -509 -763
509 c-561 374 -771 509 -792 509 -19 0 -36 -9 -49 -26z m1920 -1454 c206 -20
381 -70 574 -166 386 -190 658 -510 745 -877 23 -95 62 -400 84 -652 81 -913
11 -1690 -211 -2358 -104 -313 -254 -521 -477 -657 -599 -369 -1459 -138
-1827 491 -153 263 -258 712 -300 1284 -25 333 -12 996 27 1410 8 88 19 207
24 265 38 403 166 715 384 935 244 245 596 362 977 325z m1685 -2619 c134
-135 133 -349 -3 -484 -42 -43 -129 -94 -140 -84 -2 3 3 76 11 164 9 87 19
231 23 320 l6 162 30 -17 c16 -9 49 -37 73 -61z m-3253 -123 c3 -106 11 -248
17 -316 7 -68 10 -125 8 -127 -9 -9 -93 44 -133 84 -54 53 -82 108 -97 189
-22 116 31 246 132 326 25 20 50 36 56 36 7 0 13 -63 17 -192z"/>
<path d="M3615 4944 c-55 -13 -110 -26 -122 -29 -28 -7 -32 -50 -5 -63 17 -9
144 12 242 41 40 11 45 16 45 42 0 26 -4 30 -30 31 -16 1 -75 -9 -130 -22z"/>
<path d="M2663 4884 c-10 -26 3 -48 32 -57 37 -11 559 -15 598 -4 20 5 27 14
27 33 0 13 -6 26 -12 29 -7 2 -154 5 -326 8 -249 3 -315 1 -319 -9z"/>
<path d="M3845 4554 c-247 -26 -571 -56 -700 -65 -198 -14 -567 -6 -728 16
-139 19 -180 12 -232 -40 -79 -80 -65 -216 29 -275 44 -26 186 -46 438 -62
237 -14 473 -3 928 42 376 37 555 39 679 9 73 -18 92 -20 129 -10 83 23 143
116 127 200 -24 131 -145 180 -455 186 -96 1 -193 1 -215 -1z"/>
<path d="M2329 3966 c-96 -71 -182 -201 -213 -322 -20 -79 -21 -239 -1 -323
37 -154 158 -307 297 -375 133 -66 267 -81 402 -46 110 28 190 73 272 155 124
123 182 281 169 460 -12 173 -64 293 -176 400 -71 69 -100 79 -122 43 -9 -14
2 -29 60 -85 66 -65 126 -162 148 -242 6 -21 5 -23 -16 -18 -150 37 -570 34
-802 -7 -82 -14 -153 -29 -159 -32 -19 -12 1 67 37 144 36 76 112 166 172 203
27 17 33 27 31 48 -5 39 -43 38 -99 -3z m736 -417 c122 -15 115 -9 115 -93 0
-225 -165 -436 -380 -485 -64 -15 -196 -13 -256 3 -130 34 -263 144 -319 261
-30 64 -58 183 -53 229 3 30 5 32 83 48 83 18 281 48 315 48 16 0 20 -7 20
-31 0 -43 56 -99 99 -99 65 0 111 46 111 110 l0 33 93 -7 c50 -4 128 -11 172
-17z"/>
<path d="M3659 3966 c-96 -71 -182 -201 -213 -322 -20 -79 -21 -239 -1 -323
37 -154 158 -307 297 -375 133 -66 267 -81 402 -46 110 28 190 73 272 155 124
123 182 281 169 460 -12 173 -64 293 -176 400 -71 69 -100 79 -122 43 -9 -14
2 -29 60 -85 66 -65 126 -162 148 -242 6 -21 5 -23 -16 -18 -150 37 -570 34
-802 -7 -82 -14 -153 -29 -159 -32 -19 -12 1 67 37 144 36 76 112 166 172 203
27 17 33 27 31 48 -5 39 -43 38 -99 -3z m736 -417 c122 -15 115 -9 115 -93 0
-225 -165 -436 -380 -485 -64 -15 -196 -13 -256 3 -130 34 -263 144 -319 261
-30 64 -58 183 -53 229 3 30 5 32 83 48 83 18 281 48 315 48 16 0 20 -7 20
-31 0 -43 56 -99 99 -99 65 0 111 46 111 110 l0 33 93 -7 c50 -4 128 -11 172
-17z"/>
<path d="M3084 2857 c-3 -8 -4 -135 -2 -283 3 -256 4 -271 26 -319 42 -92 103
-137 182 -137 56 0 97 19 139 67 64 74 65 81 66 395 l0 285 -30 0 -30 0 -5
-260 c-6 -281 -13 -325 -60 -375 -48 -52 -112 -52 -160 0 -47 50 -54 94 -60
375 l-5 260 -28 3 c-17 2 -29 -2 -33 -11z"/>
<path d="M2199 2804 c-18 -22 -4 -42 69 -90 127 -84 299 -119 448 -91 116 22
154 40 154 72 0 14 -6 28 -14 31 -8 3 -54 -4 -103 -16 -161 -41 -330 -13 -458
74 -57 40 -76 44 -96 20z"/>
<path d="M4297 2780 c-120 -80 -295 -111 -427 -75 -84 23 -120 24 -133 3 -17
-25 7 -45 80 -68 179 -55 373 -25 535 83 50 33 59 43 56 66 -5 40 -42 37 -111
-9z"/>
<path d="M3112 1620 c-199 -20 -439 -72 -584 -127 -64 -25 -73 -32 -76 -56 -5
-42 21 -44 122 -9 211 73 420 111 657 119 269 9 477 -20 731 -104 75 -25 144
-43 153 -39 11 4 15 15 13 33 -3 25 -12 31 -93 62 -116 43 -284 86 -419 106
-132 19 -381 27 -504 15z"/>
</g>
</svg>
